<svg xmlns="http://www.w3.org/2000/svg" xmlns:xlink="http://www.w3.org/1999/xlink" width="840" height="581.04"><rect width="840" height="581.04" rx="5" ry="5" class="a"/><svg y="0%" x="0%"><circle cx="20" cy="20" r="6" fill="#ff5f58"/><circle cx="40" cy="20" r="6" fill="#ffbd2e"/><circle cx="60" cy="20" r="6" fill="#18c132"/></svg><svg height="521.04" viewBox="0 0 80 52.104" width="800" x="15" xmlns="http://www.w3.org/2000/svg" xmlns:xlink="http://www.w3.org/1999/xlink" y="50"><style>@keyframes p{0%{transform:translateX(0)}.6%{transform:translateX(-160px)}.7%{transform:translateX(-320px)}7.9%{transform:translateX(-400px)}8.9%{transform:translateX(-480px)}11.1%{transform:translateX(-560px)}12.5%{transform:translateX(-640px)}13.4%{transform:translateX(-720px)}15.4%{transform:translateX(-960px)}17.6%{transform:translateX(-1120px)}18.3%{transform:translateX(-1200px)}18.7%{transform:translateX(-1280px)}19.3%{transform:translateX(-1360px)}24.6%{transform:translateX(-1440px)}24.9%{transform:translateX(-1520px)}25.3%{transform:translateX(-1600px)}25.6%{transform:translateX(-1680px)}26%{transform:translateX(-1760px)}26.3%{transform:translateX(-1840px)}26.7%{transform:translateX(-1920px)}27%{transform:translateX(-2000px)}27.4%{transform:translateX(-2080px)}27.7%{transform:translateX(-2160px)}28.1%{transform:translateX(-2240px)}28.4%{transform:translateX(-2320px)}28.8%{transform:translateX(-2480px)}29.2%{transform:translateX(-2560px)}29.3%{transform:translateX(-2720px)}29.4%{transform:translateX(-2880px)}42.7%{transform:translateX(-2960px)}44.4%{transform:translateX(-3040px)}45.8%{transform:translateX(-3120px)}47%{transform:translateX(-3200px)}48.5%{transform:translateX(-3280px)}49.9%{transform:translateX(-3360px)}50.7%{transform:translateX(-3440px)}50.9%{transform:translateX(-3520px)}53.7%{transform:translateX(-4080px)}53.8%{transform:translateX(-4240px)}61.6%{transform:translateX(-4320px)}63.3%{transform:translateX(-4400px)}64.2%{transform:translateX(-4480px)}65.6%{transform:translateX(-4560px)}67%{transform:translateX(-4640px)}69.4%{transform:translateX(-4720px)}76.6%{transform:translateX(-4880px)}83.5%{transform:translateX(-4960px)}83.6%{transform:translateX(-5360px)}to{transform:translateX(-5440px)}}.a{fill:#282d35}.f,.g{fill:#dbab79;white-space:pre}.g{fill:#b9c0cb}.h,.i{fill:#fff}.i{white-space:pre}.j,.k,.l,.m{fill:#6f7783}.k,.l,.m{white-space:pre}.l,.m{fill:#a8cc8c}.m{fill:#d290e4}</style><g font-family="Monaco,Consolas,Menlo,'Bitstream Vera Sans Mono','Powerline Symbols',monospace" font-size="1.67"><defs><symbol id="1"><text y="1.67" class="f">fronvo.js</text><text x="10.02" y="1.67" class="f">➤</text><text x="69.138" y="1.67" class="f">git:master</text></symbol><symbol id="2"><text y="1.67" class="f">fronvo.js</text><text x="10.02" y="1.67" class="f">➤</text><text x="12.024" y="1.67" class="g">npm</text><text x="69.138" y="1.67" class="f">git:master</text></symbol><symbol id="3"><text y="1.67" class="f">fronvo.js</text><text x="10.02" y="1.67" class="f">➤</text><text x="12.024" y="1.67" class="g">npm</text><text x="16.032" y="1.67" class="g">i</text><text x="69.138" y="1.67" class="f">git:master</text></symbol><symbol id="4"><text y="1.67" class="g">(</text><path class="h" d="M1.002 0h9v2.171h-9z"/><text x="1.002" y="1.67" class="i">#########</text><path class="j" d="M10.02 0h9v2.171h-9z"/><text x="10.02" y="1.67" class="k">⠂⠂⠂⠂⠂⠂⠂⠂⠂</text><text x="19.038" y="1.67" class="g">)</text><text x="21.042" y="1.67" class="g">⠼</text><text x="23.046" y="1.67" class="g">reify:@swc/core-android-arm-eabi:</text>0<text x="57.114" y="1.67" class="l">timing</text><text x="64.128" y="1.67" class="m">reifyNode:node_</text></symbol><symbol id="5"><text y="1.67" class="g">(</text><path class="h" d="M1.002 0h18v2.171h-18z"/><text x="1.002" y="1.67" class="i">##################</text><text x="19.038" y="1.67" class="g">)</text><text x="21.042" y="1.67" class="g">⠧</text><text x="23.046" y="1.67" class="g">reify:resolve:</text>0<text x="38.076" y="1.67" class="l">timing</text><text x="45.09" y="1.67" class="m">reifyNode:node_modules/@types/node</text></symbol><symbol id="6"><text y="1.67" class="g">(</text><path class="h" d="M1.002 0h18v2.171h-18z"/><text x="1.002" y="1.67" class="i">##################</text><text x="19.038" y="1.67" class="g">)</text><text x="21.042" y="1.67" class="g">⠦</text><text x="23.046" y="1.67" class="g">reify:es-abstract:</text>0<text x="42.084" y="1.67" class="l">timing</text><text x="49.098" y="1.67" class="m">reifyNode:node_modules/prettie</text></symbol><symbol id="7"><text y="1.67" class="g">husky</text><text x="6.012" y="1.67" class="g">-</text><text x="8.016" y="1.67" class="g">Git</text><text x="12.024" y="1.67" class="g">hooks</text><text x="18.036" y="1.67" class="g">installed</text></symbol><symbol id="8"><text y="1.67" class="f">fronvo.js</text><text x="10.02" y="1.67" class="f">➤</text><text x="12.024" y="1.67" class="g">examples</text><text x="69.138" y="1.67" class="f">git:master</text></symbol><symbol id="9"><text y="1.67" class="f">examples</text><text x="9.018" y="1.67" class="f">➤</text><text x="69.138" y="1.67" class="f">git:master</text></symbol><symbol id="10"><text y="1.67" class="f">examples</text><text x="9.018" y="1.67" class="f">➤</text><text x="11.022" y="1.67" class="g">node</text><text x="69.138" y="1.67" class="f">git:master</text></symbol><symbol id="11"><text y="1.67" class="f">examples</text><text x="9.018" y="1.67" class="f">➤</text><text x="11.022" y="1.67" class="g">node</text><text x="16.032" y="1.67" class="g">-r</text><text x="19.038" y="1.67" class="g">@swc-node/register</text><text x="38.076" y="1.67" class="g">basic_events.ts</text><text x="69.138" y="1.67" class="f">git:master</text></symbol><symbol id="12"><text y="1.67" class="g">Bot</text><text x="4.008" y="1.67" class="g">is</text><text x="7.014" y="1.67" class="g">ready</text><text x="13.026" y="1.67" class="g">for</text><text x="17.034" y="1.67" class="g">action!</text></symbol><symbol id="13"><text y="1.67" class="g">--------------------</text></symbol><symbol id="14"><text y="1.67" class="g">Bot</text><text x="4.008" y="1.67" class="g">id:</text><text x="8.016" y="1.67" class="g">fronvouser1</text></symbol><symbol id="15"><text y="1.67" class="g">Bot</text><text x="4.008" y="1.67" class="g">username:</text><text x="14.028" y="1.67" class="g">Fronvo</text><text x="21.042" y="1.67" class="g">User</text><text x="26.052" y="1.67" class="g">1</text></symbol><symbol id="16"><text y="1.67" class="g">Bot</text><text x="4.008" y="1.67" class="g">creation</text><text x="13.026" y="1.67" class="g">date:</text><text x="19.038" y="1.67" class="g">Nov</text><text x="23.046" y="1.67" class="g">28,</text><text x="27.054" y="1.67" class="g">2021,</text><text x="33.066" y="1.67" class="g">11:34</text><text x="39.078" y="1.67" class="g">AM</text></symbol><symbol id="a"><path fill="transparent" d="M0 0h80v24H0z"/></symbol><symbol id="b"><path fill="#6f7683" d="M0 0h1.102v2.171H0z"/></symbol></defs><path class="a" d="M0 0h80v52.104H0z"/><g style="animation-duration:14.510918s;animation-iteration-count:infinite;animation-name:p;animation-timing-function:steps(1,end)"><svg width="5520"><svg><use xlink:href="#a"/><use xlink:href="#b" x="-.004"/></svg><svg x="80"><use xlink:href="#a"/><use xlink:href="#b" x="-.004"/></svg><svg x="160"><use xlink:href="#a"/><use xlink:href="#b" x="-.004"/></svg><svg x="240"><use xlink:href="#a"/><use xlink:href="#b" x="11.996"/><use xlink:href="#1"/></svg><svg x="320"><use xlink:href="#a"/><use xlink:href="#b" x="11.996"/><use xlink:href="#1"/></svg><svg x="400"><use xlink:href="#a"/><use xlink:href="#b" x="12.996"/><text y="1.67" class="f">fronvo.js</text><text x="10.02" y="1.67" class="f">➤</text><text x="12.024" y="1.67" class="g">n</text><text x="69.138" y="1.67" class="f">git:master</text></svg><svg x="480"><use xlink:href="#a"/><use xlink:href="#b" x="13.996"/><text y="1.67" class="f">fronvo.js</text><text x="10.02" y="1.67" class="f">➤</text><text x="12.024" y="1.67" class="g">np</text><text x="69.138" y="1.67" class="f">git:master</text></svg><svg x="560"><use xlink:href="#a"/><use xlink:href="#b" x="14.996"/><use xlink:href="#2"/></svg><svg x="640"><use xlink:href="#a"/><use xlink:href="#b" x="15.996"/><use xlink:href="#2"/></svg><svg x="720"><use xlink:href="#a"/><use xlink:href="#b" x="16.996"/><use xlink:href="#3"/></svg><svg x="800"><use xlink:href="#a"/><use xlink:href="#b" x="16.996"/><use xlink:href="#3"/></svg><svg x="880"><use xlink:href="#a"/><use xlink:href="#b" x="-.004" y="2.146"/><use xlink:href="#3"/></svg><svg x="960"><use xlink:href="#a"/><use xlink:href="#b" x="-.004" y="2.146"/><use xlink:href="#3"/></svg><svg x="1040"><use xlink:href="#a"/><use xlink:href="#3"/></svg><svg x="1120"><use xlink:href="#a"/><use xlink:href="#3"/><text y="3.841" class="g">(</text><path class="h" d="M1.002 2.171h9v2.171h-9z"/><text x="1.002" y="3.841" class="i">#########</text><path class="j" d="M10.02 2.171h9v2.171h-9z"/><text x="10.02" y="3.841" class="k">⠂⠂⠂⠂⠂⠂⠂⠂⠂</text><text x="19.038" y="3.841" class="g">)</text><text x="21.042" y="3.841" class="g">⠙</text><text x="23.046" y="3.841" class="g">idealTree:</text>0<text x="34.068" y="3.841" class="l">timing</text><text x="41.082" y="3.841" class="m">idealTree</text><text x="51.102" y="3.841" class="g">Completed</text><text x="61.122" y="3.841" class="g">in</text><text x="64.128" y="3.841" class="g">86ms</text></svg><svg x="1200"><use xlink:href="#a"/><use xlink:href="#3"/><use xlink:href="#4" y="2.171"/></svg><svg x="1280"><use xlink:href="#a"/><use xlink:href="#3"/><use xlink:href="#4" y="2.171"/></svg><svg x="1360"><use xlink:href="#a"/><use xlink:href="#3"/><use xlink:href="#4" y="2.171"/></svg><svg x="1440"><use xlink:href="#a"/><use xlink:href="#3"/><use xlink:href="#4" y="2.171"/></svg><svg x="1520"><use xlink:href="#a"/><use xlink:href="#3"/><use xlink:href="#4" y="2.171"/></svg><svg x="1600"><use xlink:href="#a"/><use xlink:href="#3"/><text y="3.841" class="g">(</text><path class="h" d="M1.002 2.171h14v2.171h-14z"/><text x="1.002" y="3.841" class="i">##############</text><path class="j" d="M15.03 2.171h4v2.171h-4z"/><text x="15.03" y="3.841" class="k">⠂⠂⠂⠂</text><text x="19.038" y="3.841" class="g">)</text><text x="21.042" y="3.841" class="g">⠧</text><text x="23.046" y="3.841" class="g">reify:globby:</text>0<text x="37.074" y="3.841" class="l">timing</text><text x="44.088" y="3.841" class="m">reifyNode:node_modules/hosted-git-i</text></svg><svg x="1680"><use xlink:href="#a"/><use xlink:href="#3"/><text y="3.841" class="g">(</text><path class="h" d="M1.002 2.171h17v2.171h-17z"/><text x="1.002" y="3.841" class="i">#################</text><path class="j" d="M18.036 2.171h1v2.171h-1z"/><text x="18.036" y="3.841" class="k">⠂</text><text x="19.038" y="3.841" class="g">)</text><text x="21.042" y="3.841" class="g">⠇</text><text x="23.046" y="3.841" class="g">reify:vscode-oniguruma:</text>0<text x="47.094" y="3.841" class="l">timing</text><text x="54.108" y="3.841" class="m">reifyNode:node_modules/js</text></svg><svg x="1760"><use xlink:href="#a"/><use xlink:href="#3"/><text y="3.841" class="g">(</text><path class="h" d="M1.002 2.171h17v2.171h-17z"/><text x="1.002" y="3.841" class="i">#################</text><path class="j" d="M18.036 2.171h1v2.171h-1z"/><text x="18.036" y="3.841" class="k">⠂</text><text x="19.038" y="3.841" class="g">)</text><text x="21.042" y="3.841" class="g">⠙</text><text x="23.046" y="3.841" class="g">reify:tsconfig-paths:</text>0<text x="45.09" y="3.841" class="l">timing</text><text x="52.104" y="3.841" class="m">reifyNode:node_modules/tsco</text></svg><svg x="1840"><use xlink:href="#a"/><use xlink:href="#3"/><use xlink:href="#5" y="2.171"/></svg><svg x="1920"><use xlink:href="#a"/><use xlink:href="#3"/><use xlink:href="#5" y="2.171"/></svg><svg x="2000"><use xlink:href="#a"/><use xlink:href="#3"/><text y="3.841" class="g">(</text><path class="h" d="M1.002 2.171h18v2.171h-18z"/><text x="1.002" y="3.841" class="i">##################</text><text x="19.038" y="3.841" class="g">)</text><text x="21.042" y="3.841" class="g">⠼</text><text x="23.046" y="3.841" class="g">reify:shiki:</text>0<text x="36.072" y="3.841" class="l">timing</text><text x="43.086" y="3.841" class="m">reifyNode:node_modules/typedoc</text><text x="74.148" y="3.841" class="g">Compl</text></svg><svg x="2080"><use xlink:href="#a"/><use xlink:href="#3"/><use xlink:href="#6" y="2.171"/></svg><svg x="2160"><use xlink:href="#a"/><use xlink:href="#3"/><use xlink:href="#6" y="2.171"/></svg><svg x="2240"><use xlink:href="#a"/><use xlink:href="#3"/><use xlink:href="#6" y="2.171"/></svg><svg x="2320"><use xlink:href="#a"/><use xlink:href="#3"/><text y="3.841" class="g">(</text><path class="h" d="M1.002 2.171h18v2.171h-18z"/><text x="1.002" y="3.841" class="i">##################</text><text x="19.038" y="3.841" class="g">)</text><text x="21.042" y="3.841" class="g">⠧</text><text x="23.046" y="3.841" class="g">reify:typescript:</text>0<text x="41.082" y="3.841" class="l">timing</text><text x="48.096" y="3.841" class="m">reifyNode:node_modules/es-abstr</text></svg><svg x="2400"><use xlink:href="#a"/><use xlink:href="#3"/><text y="3.841" class="g">(</text><path class="h" d="M1.002 2.171h18v2.171h-18z"/><text x="1.002" y="3.841" class="i">##################</text><text x="19.038" y="3.841" class="g">)</text><text x="21.042" y="3.841" class="g">⠼</text><text x="23.046" y="3.841" class="g">reify:@swc/core-linux-x64-musl:</text>0<text x="55.11" y="3.841" class="l">timing</text><text x="62.124" y="3.841" class="m">reifyNode:node_mo</text></svg><svg x="2480"><use xlink:href="#a"/><use xlink:href="#b" x="-.004" y="2.146"/><use xlink:href="#3"/></svg><svg x="2560"><use xlink:href="#a"/><use xlink:href="#b" x="-.004" y="4.317"/><use xlink:href="#3"/><use xlink:href="#7" y="2.171"/></svg><svg x="2640"><use xlink:href="#a"/><use xlink:href="#b" x="-.004" y="4.317"/><use xlink:href="#3"/><use xlink:href="#7" y="2.171"/></svg><svg x="2720"><use xlink:href="#a"/><use xlink:href="#b" x="-.004" y="4.317"/><use xlink:href="#3"/><use xlink:href="#7" y="2.171"/></svg><svg x="2800"><use xlink:href="#a"/><use xlink:href="#b" x="11.996" y="4.317"/><use xlink:href="#3"/><use xlink:href="#7" y="2.171"/><use xlink:href="#1" y="4.342"/></svg><svg x="2880"><use xlink:href="#a"/><use xlink:href="#b" x="11.996" y="4.317"/><use xlink:href="#3"/><use xlink:href="#7" y="2.171"/><use xlink:href="#1" y="4.342"/></svg><svg x="2960"><use xlink:href="#a"/><use xlink:href="#b" x="12.996" y="4.317"/><use xlink:href="#3"/><use xlink:href="#7" y="2.171"/><text y="6.012" class="f">fronvo.js</text><text x="10.02" y="6.012" class="f">➤</text><text x="12.024" y="6.012" class="g">e</text><text x="69.138" y="6.012" class="f">git:master</text></svg><svg x="3040"><use xlink:href="#a"/><use xlink:href="#b" x="13.996" y="4.317"/><use xlink:href="#3"/><use xlink:href="#7" y="2.171"/><text y="6.012" class="f">fronvo.js</text><text x="10.02" y="6.012" class="f">➤</text><text x="12.024" y="6.012" class="g">ex</text><text x="69.138" y="6.012" class="f">git:master</text></svg><svg x="3120"><use xlink:href="#a"/><use xlink:href="#b" x="14.996" y="4.317"/><use xlink:href="#3"/><use xlink:href="#7" y="2.171"/><text y="6.012" class="f">fronvo.js</text><text x="10.02" y="6.012" class="f">➤</text><text x="12.024" y="6.012" class="g">exa</text><text x="69.138" y="6.012" class="f">git:master</text></svg><svg x="3200"><use xlink:href="#a"/><use xlink:href="#b" x="15.996" y="4.317"/><use xlink:href="#3"/><use xlink:href="#7" y="2.171"/><text y="6.012" class="f">fronvo.js</text><text x="10.02" y="6.012" class="f">➤</text><text x="12.024" y="6.012" class="g">exam</text><text x="69.138" y="6.012" class="f">git:master</text></svg><svg x="3280"><use xlink:href="#a"/><use xlink:href="#b" x="16.996" y="4.317"/><use xlink:href="#3"/><use xlink:href="#7" y="2.171"/><text y="6.012" class="f">fronvo.js</text><text x="10.02" y="6.012" class="f">➤</text><text x="12.024" y="6.012" class="g">examp</text><text x="69.138" y="6.012" class="f">git:master</text></svg><svg x="3360"><use xlink:href="#a"/><use xlink:href="#b" x="17.996" y="4.317"/><use xlink:href="#3"/><use xlink:href="#7" y="2.171"/><text y="6.012" class="f">fronvo.js</text><text x="10.02" y="6.012" class="f">➤</text><text x="12.024" y="6.012" class="g">exampl</text><text x="69.138" y="6.012" class="f">git:master</text></svg><svg x="3440"><use xlink:href="#a"/><use xlink:href="#b" x="18.996" y="4.317"/><use xlink:href="#3"/><use xlink:href="#7" y="2.171"/><text y="6.012" class="f">fronvo.js</text><text x="10.02" y="6.012" class="f">➤</text><text x="12.024" y="6.012" class="g">exampl</text><text x="18.036" y="6.012" style="white-space:pre" fill="#e88388">…</text><text x="69.138" y="6.012" class="f">git:master</text></svg><svg x="3520"><use xlink:href="#a"/><use xlink:href="#b" x="20.996" y="4.317"/><use xlink:href="#3"/><use xlink:href="#7" y="2.171"/><text y="6.012" class="f">fronvo.js</text><text x="10.02" y="6.012" class="f">➤</text><text x="12.024" y="6.012" class="g">examples</text><text x="20.04" y="6.012" style="white-space:pre" fill="#b9c0cb" font-weight="700">/</text><text x="69.138" y="6.012" class="f">git:master</text></svg><svg x="3600"><use xlink:href="#a"/><use xlink:href="#b" x="19.996" y="4.317"/><use xlink:href="#3"/><use xlink:href="#7" y="2.171"/><use xlink:href="#8" y="4.342"/></svg><svg x="3680"><use xlink:href="#a"/><use xlink:href="#b" x="19.996" y="4.317"/><use xlink:href="#3"/><use xlink:href="#7" y="2.171"/><use xlink:href="#8" y="4.342"/></svg><svg x="3760"><use xlink:href="#a"/><use xlink:href="#b" x="-.004" y="6.488"/><use xlink:href="#3"/><use xlink:href="#7" y="2.171"/><use xlink:href="#8" y="4.342"/></svg><svg x="3840"><use xlink:href="#a"/><use xlink:href="#b" x="-.004" y="6.488"/><use xlink:href="#3"/><use xlink:href="#7" y="2.171"/><use xlink:href="#8" y="4.342"/></svg><svg x="3920"><use xlink:href="#a"/><use xlink:href="#b" x="-.004" y="6.488"/><use xlink:href="#3"/><use xlink:href="#7" y="2.171"/><use xlink:href="#8" y="4.342"/></svg><svg x="4000"><use xlink:href="#a"/><use xlink:href="#b" x="-.004" y="6.488"/><use xlink:href="#3"/><use xlink:href="#7" y="2.171"/><use xlink:href="#8" y="4.342"/></svg><svg x="4080"><use xlink:href="#a"/><use xlink:href="#b" x="-.004" y="6.488"/><use xlink:href="#3"/><use xlink:href="#7" y="2.171"/><use xlink:href="#8" y="4.342"/></svg><svg x="4160"><use xlink:href="#a"/><use xlink:href="#b" x="10.996" y="6.488"/><use xlink:href="#3"/><use xlink:href="#7" y="2.171"/><use xlink:href="#8" y="4.342"/><use xlink:href="#9" y="6.513"/></svg><svg x="4240"><use xlink:href="#a"/><use xlink:href="#b" x="10.996" y="6.488"/><use xlink:href="#3"/><use xlink:href="#7" y="2.171"/><use xlink:href="#8" y="4.342"/><use xlink:href="#9" y="6.513"/></svg><svg x="4320"><use xlink:href="#a"/><use xlink:href="#b" x="11.996" y="6.488"/><use xlink:href="#3"/><use xlink:href="#7" y="2.171"/><use xlink:href="#8" y="4.342"/><text y="8.183" class="f">examples</text><text x="9.018" y="8.183" class="f">➤</text><text x="11.022" y="8.183" class="g">n</text><text x="69.138" y="8.183" class="f">git:master</text></svg><svg x="4400"><use xlink:href="#a"/><use xlink:href="#b" x="12.996" y="6.488"/><use xlink:href="#3"/><use xlink:href="#7" y="2.171"/><use xlink:href="#8" y="4.342"/><text y="8.183" class="f">examples</text><text x="9.018" y="8.183" class="f">➤</text><text x="11.022" y="8.183" class="g">no</text><text x="69.138" y="8.183" class="f">git:master</text></svg><svg x="4480"><use xlink:href="#a"/><use xlink:href="#b" x="13.996" y="6.488"/><use xlink:href="#3"/><use xlink:href="#7" y="2.171"/><use xlink:href="#8" y="4.342"/><text y="8.183" class="f">examples</text><text x="9.018" y="8.183" class="f">➤</text><text x="11.022" y="8.183" class="g">nod</text><text x="69.138" y="8.183" class="f">git:master</text></svg><svg x="4560"><use xlink:href="#a"/><use xlink:href="#b" x="14.996" y="6.488"/><use xlink:href="#3"/><use xlink:href="#7" y="2.171"/><use xlink:href="#8" y="4.342"/><use xlink:href="#10" y="6.513"/></svg><svg x="4640"><use xlink:href="#a"/><use xlink:href="#b" x="15.996" y="6.488"/><use xlink:href="#3"/><use xlink:href="#7" y="2.171"/><use xlink:href="#8" y="4.342"/><use xlink:href="#10" y="6.513"/></svg><svg x="4720"><use xlink:href="#a"/><use xlink:href="#b" x="52.996" y="6.488"/><use xlink:href="#3"/><use xlink:href="#7" y="2.171"/><use xlink:href="#8" y="4.342"/><use xlink:href="#11" y="6.513"/></svg><svg x="4800"><use xlink:href="#a"/><use xlink:href="#b" x="-.004" y="8.659"/><use xlink:href="#3"/><use xlink:href="#7" y="2.171"/><use xlink:href="#8" y="4.342"/><use xlink:href="#11" y="6.513"/></svg><svg x="4880"><use xlink:href="#a"/><use xlink:href="#b" x="-.004" y="8.659"/><use xlink:href="#3"/><use xlink:href="#7" y="2.171"/><use xlink:href="#8" y="4.342"/><use xlink:href="#11" y="6.513"/></svg><svg x="4960"><use xlink:href="#a"/><use xlink:href="#b" x="-.004" y="13.001"/><use xlink:href="#3"/><use xlink:href="#7" y="2.171"/><use xlink:href="#8" y="4.342"/><use xlink:href="#11" y="6.513"/><use xlink:href="#12" y="8.684"/></svg><svg x="5040"><use xlink:href="#a"/><use xlink:href="#b" x="-.004" y="15.172"/><use xlink:href="#3"/><use xlink:href="#7" y="2.171"/><use xlink:href="#8" y="4.342"/><use xlink:href="#11" y="6.513"/><use xlink:href="#12" y="8.684"/><use xlink:href="#13" y="13.026"/></svg><svg x="5120"><use xlink:href="#a"/><use xlink:href="#b" x="-.004" y="17.343"/><use xlink:href="#3"/><use xlink:href="#7" y="2.171"/><use xlink:href="#8" y="4.342"/><use xlink:href="#11" y="6.513"/><use xlink:href="#12" y="8.684"/><use xlink:href="#13" y="13.026"/><use xlink:href="#14" y="15.197"/></svg><svg x="5200"><use xlink:href="#a"/><use xlink:href="#b" x="-.004" y="19.514"/><use xlink:href="#3"/><use xlink:href="#7" y="2.171"/><use xlink:href="#8" y="4.342"/><use xlink:href="#11" y="6.513"/><use xlink:href="#12" y="8.684"/><use xlink:href="#13" y="13.026"/><use xlink:href="#14" y="15.197"/><use xlink:href="#15" y="17.368"/></svg><svg x="5280"><use xlink:href="#a"/><use xlink:href="#b" x="-.004" y="21.685"/><use xlink:href="#3"/><use xlink:href="#7" y="2.171"/><use xlink:href="#8" y="4.342"/><use xlink:href="#11" y="6.513"/><use xlink:href="#12" y="8.684"/><use xlink:href="#13" y="13.026"/><use xlink:href="#14" y="15.197"/><use xlink:href="#15" y="17.368"/><use xlink:href="#16" y="19.539"/></svg><svg x="5360"><use xlink:href="#a"/><use xlink:href="#b" x="-.004" y="23.856"/><use xlink:href="#3"/><use xlink:href="#7" y="2.171"/><use xlink:href="#8" y="4.342"/><use xlink:href="#11" y="6.513"/><use xlink:href="#12" y="8.684"/><use xlink:href="#13" y="13.026"/><use xlink:href="#14" y="15.197"/><use xlink:href="#15" y="17.368"/><use xlink:href="#16" y="19.539"/><use xlink:href="#13" y="21.71"/></svg><svg x="5440"><use xlink:href="#a"/><use xlink:href="#b" x="1.996" y="23.856"/><use xlink:href="#3"/><use xlink:href="#7" y="2.171"/><use xlink:href="#8" y="4.342"/><use xlink:href="#11" y="6.513"/><use xlink:href="#12" y="8.684"/><use xlink:href="#13" y="13.026"/><use xlink:href="#14" y="15.197"/><use xlink:href="#15" y="17.368"/><use xlink:href="#16" y="19.539"/><use xlink:href="#13" y="21.71"/><text y="25.551" class="g">^C</text></svg></svg></g></g></svg></svg>